<svg xmlns="http://www.w3.org/2000/svg" width="157" height="33" fill="none"><path fill="#0056F5" d="M0 5.402A5.402 5.402 0 0 1 5.402 0h21.609a5.402 5.402 0 0 1 5.402 5.402v21.609a5.402 5.402 0 0 1-5.402 5.402H5.402A5.402 5.402 0 0 1 0 27.01V5.402Z"/><path fill="#fff" d="M7.016 10.534a4.052 4.052 0 0 0 4.051 4.052h6.213a8.103 8.103 0 0 0 8.103-8.103H11.067a4.052 4.052 0 0 0-4.051 4.051Zm0 15.666H21.33a4.052 4.052 0 0 0 0-8.102h-6.21A8.103 8.103 0 0 0 7.016 26.2Z"/><path fill="#000" d="M46.844 29.069V5.082h6.223v9.01h7.909v-9.01h6.223v23.986h-6.223v-9.66h-7.909v9.66h-6.223Zm32.649.324c-1.578 0-2.95-.249-4.117-.746-1.145-.497-2.096-1.167-2.852-2.01a8.654 8.654 0 0 1-1.686-2.884 10.204 10.204 0 0 1-.55-3.306c0-1.08.172-2.15.518-3.21a8.58 8.58 0 0 1 1.653-2.851c.735-.865 1.664-1.545 2.787-2.042 1.146-.52 2.496-.778 4.052-.778 1.686 0 3.166.356 4.44 1.07 1.275.712 2.27 1.75 2.983 3.11.713 1.34 1.07 2.972 1.07 4.895v1.394H76.477c.065.735.346 1.383.843 1.945.518.561 1.242.842 2.172.842.713 0 1.253-.119 1.62-.356.368-.26.616-.508.746-.746l.194-.389h5.64l-.162.616c-.108.41-.314.919-.616 1.524-.303.583-.756 1.177-1.361 1.782s-1.405 1.113-2.399 1.524c-.972.41-2.193.616-3.662.616Zm-3.047-10.761h5.477c-.021-.886-.28-1.545-.778-1.978-.496-.453-1.155-.68-1.977-.68-.691 0-1.307.216-1.847.648-.519.432-.81 1.102-.875 2.01Zm14.427 10.437V4.434h6.159v24.634h-6.159Zm13.211-18.897c-1.016 0-1.859-.324-2.529-.973-.648-.67-.972-1.458-.972-2.366 0-.95.324-1.75.972-2.398.67-.648 1.513-.973 2.529-.973 1.015 0 1.858.325 2.528.973.67.648 1.005 1.448 1.005 2.398 0 .908-.335 1.697-1.005 2.366-.67.649-1.513.973-2.528.973Zm-3.08 18.897v-17.18h6.159v17.18h-6.159Zm15.052.324c-1.253 0-2.269-.27-3.046-.81a4.667 4.667 0 0 1-1.654-2.108 8.145 8.145 0 0 1-.486-2.82V11.89h6.094v10.242c0 .648.162 1.2.486 1.653.324.432.843.648 1.556.648.735 0 1.253-.226 1.556-.68a2.958 2.958 0 0 0 .453-1.62V11.89h6.159v17.178h-6.159v-2.43h-.194c-.475.864-1.102 1.544-1.88 2.041-.778.476-1.739.714-2.885.714Zm14.344-.324v-17.18h6.159v2.237h.194a5.303 5.303 0 0 1 1.783-1.815c.756-.497 1.707-.745 2.852-.745 1.297 0 2.312.302 3.047.907.735.584 1.264 1.275 1.588 2.075h.097c.26-.411.616-.843 1.07-1.297.454-.475 1.026-.875 1.718-1.2.691-.323 1.512-.485 2.463-.485 1.167 0 2.107.259 2.82.777a4.526 4.526 0 0 1 1.556 1.945c.346.757.519 1.524.519 2.302v12.479h-6.159V18.566c0-.562-.151-1.038-.454-1.426-.302-.411-.778-.616-1.426-.616-.626 0-1.091.205-1.394.616-.28.389-.421.864-.421 1.426v10.502h-6.158V18.566c0-.562-.152-1.038-.454-1.426-.303-.411-.778-.616-1.426-.616-.627 0-1.091.205-1.394.616-.281.389-.421.864-.421 1.426v10.502H130.4Z"/></svg>