<svg xmlns="http://www.w3.org/2000/svg" width="156" height="33" fill="none"><path fill="#fff" d="M26.964 0a5.393 5.393 0 0 1 5.392 5.393v21.57a5.393 5.393 0 0 1-5.392 5.393H5.393A5.393 5.393 0 0 1 0 26.964V5.393A5.393 5.393 0 0 1 5.393 0h21.57ZM15.1 18.065a8.09 8.09 0 0 0-8.09 8.09h14.292a4.044 4.044 0 0 0 0-8.09H15.1ZM11.055 6.472a4.044 4.044 0 0 0 0 8.088h6.202a8.089 8.089 0 0 0 8.089-8.088H11.055ZM130.18 28.196V11.047h6.147v2.233h.195a5.287 5.287 0 0 1 1.779-1.812c.755-.496 1.704-.744 2.848-.744 1.294 0 2.308.302 3.041.906.733.582 1.262 1.272 1.585 2.07h.098c.258-.41.614-.84 1.067-1.294.453-.474 1.025-.873 1.715-1.197.69-.323 1.51-.485 2.459-.485 1.165 0 2.103.259 2.815.776a4.513 4.513 0 0 1 1.553 1.942 5.46 5.46 0 0 1 .518 2.297v12.457h-6.148V17.713c0-.561-.151-1.036-.453-1.424-.302-.41-.776-.615-1.423-.615-.626 0-1.09.205-1.392.615-.28.388-.42.863-.42 1.424v10.483h-6.148V17.713c0-.561-.151-1.036-.453-1.424-.302-.41-.777-.615-1.424-.615-.625 0-1.089.205-1.391.615-.28.388-.421.863-.421 1.424v10.483h-6.147Zm-14.319.324c-1.251 0-2.265-.27-3.042-.809a4.659 4.659 0 0 1-1.65-2.103 8.118 8.118 0 0 1-.485-2.815V11.047h6.083v10.225c0 .647.161 1.197.485 1.65.324.432.841.647 1.553.647.733 0 1.251-.226 1.553-.68a2.949 2.949 0 0 0 .453-1.617V11.047h6.148v17.15h-6.148V25.77h-.194c-.475.862-1.1 1.542-1.877 2.038-.776.475-1.736.712-2.879.712ZM103.909 9.333c-1.014 0-1.855-.324-2.524-.971-.647-.669-.97-1.456-.97-2.362 0-.95.323-1.747.97-2.395.669-.647 1.51-.97 2.524-.97s1.855.323 2.524.97c.669.648 1.003 1.446 1.003 2.395 0 .906-.334 1.693-1.003 2.362-.669.647-1.51.97-2.524.97Zm-3.074 18.863V11.047h6.148v17.15h-6.148Zm-10.114 0V3.606h6.148v24.59H90.72Zm-11.361.324c-1.574 0-2.944-.248-4.109-.744-1.143-.496-2.092-1.165-2.847-2.006a8.643 8.643 0 0 1-1.683-2.88 10.188 10.188 0 0 1-.55-3.3c0-1.079.173-2.147.518-3.204a8.565 8.565 0 0 1 1.65-2.847c.734-.863 1.661-1.543 2.783-2.039 1.143-.517 2.491-.776 4.044-.776 1.683 0 3.16.356 4.433 1.068 1.273.711 2.265 1.747 2.977 3.106.712 1.337 1.068 2.966 1.068 4.886v1.391H76.35a3.3 3.3 0 0 0 .842 1.941c.517.561 1.24.842 2.168.842.712 0 1.25-.119 1.617-.356.367-.26.615-.507.745-.744l.194-.389h5.63l-.162.615c-.108.41-.313.917-.615 1.52-.302.583-.755 1.176-1.359 1.78-.604.604-1.402 1.111-2.394 1.521-.97.41-2.19.615-3.656.615Zm-3.04-10.742h5.467c-.021-.885-.28-1.543-.776-1.974-.496-.453-1.154-.68-1.974-.68-.69 0-1.305.216-1.844.647-.518.432-.81 1.1-.874 2.006ZM46.768 28.196V4.253h6.212v8.995h7.896V4.253h6.212v23.943h-6.212v-9.642H52.98v9.642h-6.213Z"/></svg>